<svg
                  xmlns="http://www.w3.org/2000/svg"
                  width="15"
                  height="15"
                  viewBox="0 0 15 15"
                  fill="none"
                >
                  <path
                    d="M7.5 5.00007L2.5 10.0001V12.5001L5 12.5001L9.99999 7.50006M7.5 5.00007L9.29289 3.20716L9.29397 3.2061C9.54077 2.9593 9.66439 2.83568 9.80689 2.78938C9.93242 2.74859 10.0676 2.74859 10.1932 2.78938C10.3356 2.83565 10.4591 2.95913 10.7055 3.20558L11.7929 4.29295C12.0404 4.54046 12.1642 4.66427 12.2106 4.80698C12.2514 4.93251 12.2513 5.06772 12.2106 5.19325C12.1642 5.33585 12.0406 5.45948 11.7934 5.70663L11.7929 5.70716L9.99999 7.50006M7.5 5.00007L9.99999 7.50006"
                    stroke="#121212"
                    stroke-linecap="round"
                    stroke-linejoin="round"
                  />
                </svg>