<svg width="25" height="24" viewBox="0 0 25 24" fill="none" xmlns="http://www.w3.org/2000/svg">
<path d="M8.65991 4H7.85039C6.71668 4 6.14941 4 5.71639 4.21799C5.33549 4.40973 5.02604 4.71547 4.83196 5.0918C4.61133 5.51962 4.61133 6.08009 4.61133 7.2002V8M8.65991 4H16.7571M8.65991 4V2M16.7571 4H17.567C18.7007 4 19.2668 4 19.6998 4.21799C20.0807 4.40973 20.3912 4.71547 20.5852 5.0918C20.8057 5.5192 20.8057 6.07899 20.8057 7.19691V8M16.7571 4V2M4.61133 8V16.8002C4.61133 17.9203 4.61133 18.4801 4.83196 18.9079C5.02604 19.2842 5.33549 19.5905 5.71639 19.7822C6.14898 20 6.71557 20 7.84707 20H17.5699C18.7014 20 19.2672 20 19.6998 19.7822C20.0807 19.5905 20.3912 19.2842 20.5852 18.9079C20.8057 18.4805 20.8057 17.9215 20.8057 16.8036V8M4.61133 8H20.8057M16.7571 16H16.7591L16.7591 16.002L16.7571 16.002V16ZM12.7085 16H12.7105L12.7105 16.002L12.7085 16.002V16ZM8.65991 16H8.66194L8.66189 16.002L8.65991 16.002V16ZM16.7591 12V12.002L16.7571 12.002V12H16.7591ZM12.7085 12H12.7105L12.7105 12.002L12.7085 12.002V12ZM8.65991 12H8.66194L8.66189 12.002L8.65991 12.002V12Z" stroke="#BABBC7" stroke-width="2" stroke-linecap="round" stroke-linejoin="round"/>
</svg>
