<svg width="32" height="32" viewBox="0 0 32 32" fill="none" xmlns="http://www.w3.org/2000/svg">
<path d="M5.33301 10.6665H26.6663M5.33301 10.6665V22.4001C5.33301 23.8936 5.33301 24.6399 5.62366 25.2104C5.87932 25.7121 6.28697 26.1205 6.78874 26.3761C7.35861 26.6665 8.105 26.6665 9.59555 26.6665H22.4038C23.8943 26.6665 24.6397 26.6665 25.2095 26.3761C25.7113 26.1205 26.1203 25.7121 26.376 25.2104C26.6663 24.6405 26.6663 23.8952 26.6663 22.4046V10.6665M5.33301 10.6665V9.6001C5.33301 8.10662 5.33301 7.35933 5.62366 6.7889C5.87932 6.28713 6.28697 5.87948 6.78874 5.62382C7.35917 5.33317 8.10646 5.33317 9.59993 5.33317H10.6663M26.6663 10.6665V9.59572C26.6663 8.10516 26.6663 7.35877 26.376 6.7889C26.1203 6.28713 25.7113 5.87948 25.2095 5.62382C24.6391 5.33317 23.8934 5.33317 22.3999 5.33317H21.333M10.6663 5.33317H21.333M10.6663 5.33317V2.6665M21.333 5.33317V2.6665M19.9997 15.9998L14.6663 21.3332L11.9997 18.6665" stroke="#44A5FF" stroke-width="2" stroke-linecap="round" stroke-linejoin="round"/>
</svg>
