<svg xmlns="http://www.w3.org/2000/svg" width="24" height="24" viewBox="0 0 24 24" fill="none">
<path d="M16.4899 12.0576C16.4899 12.5754 16.9157 12.9951 17.4409 12.9951C17.9661 12.9951 18.3918 12.5754 18.3918 12.0576C18.3918 11.5399 17.9661 11.1201 17.4409 11.1201C16.9157 11.1201 16.4899 11.5399 16.4899 12.0576Z" stroke="#623AD6" stroke-width="2" stroke-linecap="round" stroke-linejoin="round"/>
<path d="M10.784 12.0576C10.784 12.5754 11.2098 12.9951 11.735 12.9951C12.2602 12.9951 12.686 12.5754 12.686 12.0576C12.686 11.5399 12.2602 11.1201 11.735 11.1201C11.2098 11.1201 10.784 11.5399 10.784 12.0576Z" stroke="#623AD6" stroke-width="2" stroke-linecap="round" stroke-linejoin="round"/>
<path d="M5.07812 12.0576C5.07812 12.5754 5.50389 12.9951 6.02911 12.9951C6.55432 12.9951 6.98009 12.5754 6.98009 12.0576C6.98009 11.5399 6.55432 11.1201 6.02911 11.1201C5.50389 11.1201 5.07812 11.5399 5.07812 12.0576Z" stroke="#623AD6" stroke-width="2" stroke-linecap="round" stroke-linejoin="round"/>
</svg>