<svg width="26" height="26" viewBox="0 0 26 26" fill="none" xmlns="http://www.w3.org/2000/svg">
<path d="M22.2921 17.3828C22.2083 17.2818 22.126 17.1808 22.0453 17.0834C20.9347 15.7401 20.2628 14.9294 20.2628 11.1267C20.2628 9.15793 19.7918 7.54254 18.8635 6.33101C18.1789 5.43598 17.2536 4.75702 16.034 4.25524C16.0183 4.24651 16.0043 4.23505 15.9926 4.22141C15.5539 2.75242 14.3535 1.76855 12.9996 1.76855C11.6457 1.76855 10.4458 2.75242 10.0071 4.2199C9.99541 4.23304 9.98159 4.24413 9.96623 4.25271C7.12012 5.42437 5.73695 7.67228 5.73695 11.1252C5.73695 14.9294 5.06606 15.7401 3.95448 17.0819C3.87371 17.1793 3.79142 17.2783 3.70762 17.3812C3.49116 17.6423 3.35402 17.9599 3.31242 18.2964C3.27082 18.633 3.3265 18.9744 3.47289 19.2803C3.78436 19.9366 4.44818 20.344 5.20589 20.344H20.7989C21.5531 20.344 22.2124 19.9371 22.5248 19.2839C22.6718 18.9779 22.7281 18.6362 22.6868 18.2992C22.6456 17.9623 22.5086 17.6442 22.2921 17.3828V17.3828Z" fill="#96A7AF"/>
<path d="M12.9995 24.3845C13.729 24.3839 14.4447 24.1859 15.0707 23.8115C15.6967 23.437 16.2098 22.9002 16.5554 22.2577C16.5716 22.227 16.5797 22.1925 16.5787 22.1577C16.5777 22.1229 16.5678 22.0889 16.5498 22.0591C16.5318 22.0292 16.5064 22.0046 16.4761 21.9875C16.4457 21.9704 16.4115 21.9614 16.3767 21.9614H9.62335C9.58848 21.9613 9.55417 21.9702 9.52377 21.9873C9.49336 22.0044 9.4679 22.029 9.44986 22.0589C9.43181 22.0887 9.4218 22.1227 9.4208 22.1575C9.4198 22.1924 9.42784 22.2269 9.44414 22.2577C9.7897 22.9001 10.3026 23.4369 10.9286 23.8113C11.5545 24.1858 12.2701 24.3838 12.9995 24.3845Z" fill="#96A7AF"/>
</svg>
