<svg xmlns="http://www.w3.org/2000/svg" width="15" height="15" viewBox="0 0 15 15" fill="none">
<path d="M8.75 6.25V10.625M6.25 6.25V10.625M3.75 3.75V11.125C3.75 11.8251 3.75 12.1749 3.88624 12.4422C4.00608 12.6774 4.19717 12.8691 4.43237 12.9889C4.6995 13.125 5.04937 13.125 5.74807 13.125H9.25193C9.95063 13.125 10.3 13.125 10.5671 12.9889C10.8023 12.8691 10.994 12.6774 11.1139 12.4422C11.25 12.1751 11.25 11.8256 11.25 11.1269V3.75M3.75 3.75H5M3.75 3.75H2.5M5 3.75H10M5 3.75C5 3.16757 5 2.8765 5.09515 2.64679C5.22202 2.3405 5.4652 2.09702 5.77148 1.97015C6.0012 1.875 6.29257 1.875 6.875 1.875H8.125C8.70743 1.875 8.99864 1.875 9.22835 1.97015C9.53464 2.09702 9.77792 2.3405 9.90479 2.64679C9.99994 2.8765 10 3.16757 10 3.75M10 3.75H11.25M11.25 3.75H12.5" stroke="#121212" stroke-linecap="round" stroke-linejoin="round"/>
</svg>