<svg width="110" height="30" viewBox="0 0 110 30" fill="none" xmlns="http://www.w3.org/2000/svg">
<path d="M48.664 6.68V23H45.568V16.088H39.136V23H36.04V6.68L39.136 6.56V13.592H45.568V6.68H48.664ZM55.8469 6.68V23H52.7509V6.68H55.8469ZM73.6268 14.744C73.6268 17.32 72.9708 19.336 71.6588 20.792C70.3628 22.232 68.5148 22.968 66.1148 23H59.9228V6.68H66.1148C67.7628 6.68 69.1468 7.024 70.2668 7.712C71.4028 8.384 72.2428 9.328 72.7868 10.544C73.3468 11.744 73.6268 13.144 73.6268 14.744ZM70.4108 14.744C70.4108 13 70.0668 11.664 69.3788 10.736C68.6908 9.792 67.6428 9.32 66.2348 9.32H63.0188V20.384H66.0668C67.4428 20.384 68.5068 19.936 69.2588 19.04C70.0268 18.128 70.4108 16.696 70.4108 14.744ZM79.6126 6.68V23H76.5166V6.68H79.6126ZM90.3604 6.344C90.9364 6.344 91.6404 6.432 92.4724 6.608C93.3044 6.784 94.0404 7.048 94.6804 7.4L93.7204 9.632L93.1204 9.464C92.4964 9.272 92.0004 9.144 91.6324 9.08C91.2644 9 90.8084 8.96 90.2644 8.96C89.4004 8.96 88.6244 9.2 87.9364 9.68C87.2484 10.16 86.7044 10.848 86.3044 11.744C85.9204 12.64 85.7284 13.688 85.7284 14.888C85.7284 15.96 85.8964 16.944 86.2324 17.84C86.5844 18.72 87.0884 19.424 87.7444 19.952C88.4004 20.464 89.1764 20.72 90.0724 20.72C91.2564 20.72 92.4484 20.472 93.6484 19.976L94.8244 22.28C94.2164 22.6 93.4724 22.856 92.5924 23.048C91.7284 23.24 90.9444 23.336 90.2404 23.336C88.5924 23.336 87.1844 22.968 86.0164 22.232C84.8484 21.496 83.9684 20.496 83.3764 19.232C82.7844 17.952 82.4884 16.512 82.4884 14.912C82.4884 13.248 82.8084 11.768 83.4484 10.472C84.1044 9.176 85.0244 8.168 86.2084 7.448C87.4084 6.712 88.7924 6.344 90.3604 6.344ZM108.155 20.576L108.659 23H97.2353V6.68H108.155L108.635 9.128H100.331V13.52H105.659L106.163 15.992H100.331V20.576H108.155Z" fill="white"/>
<g clip-path="url(#clip0_3017_3901)">
<path d="M11.1432 8.20337L14.9997 15.067L10.2428 24.4315L3.95703 13.4861L11.1432 8.20337Z" fill="#220DA4"/>
<path d="M15 15.0669L23.8171 15.0107L18.8182 21.8096L11.1436 21.7966L15 15.0669Z" fill="#6855DD"/>
<path d="M21.324 3.75L8.625 3.77159L2.25 15L8.625 26.2284L21.3113 26.25L27.75 15.1857L21.324 3.75ZM18.8225 21.8061L11.1436 21.7932L7.28714 15L11.1436 8.20681L18.8267 8.19386L22.7171 15.1123L18.8182 21.8061H18.8225Z" fill="#503AD6"/>
</g>
<defs>
<clipPath id="clip0_3017_3901">
<rect width="25.5" height="22.5" fill="white" transform="translate(2.25 3.75)"/>
</clipPath>
</defs>
</svg>
