<svg width="16" height="16" viewBox="0 0 16 16" fill="none" xmlns="http://www.w3.org/2000/svg">
<path d="M9.99984 13.3333H5.99984M2.6665 9.20013V5.46679C2.6665 4.72006 2.6665 4.34641 2.81183 4.06119C2.93966 3.81031 3.14349 3.60648 3.39437 3.47865C3.67958 3.33333 4.05323 3.33333 4.79997 3.33333H11.2C11.9467 3.33333 12.3196 3.33333 12.6048 3.47865C12.8556 3.60648 13.0602 3.81031 13.188 4.06119C13.3332 4.34613 13.3332 4.71932 13.3332 5.4646V9.20206C13.3332 9.94733 13.3332 10.32 13.188 10.6049C13.0602 10.8558 12.8556 11.0603 12.6048 11.1881C12.3198 11.3333 11.9472 11.3333 11.2019 11.3333H4.79778C4.0525 11.3333 3.67931 11.3333 3.39437 11.1881C3.14349 11.0603 2.93966 10.8558 2.81183 10.6049C2.6665 10.3197 2.6665 9.94686 2.6665 9.20013Z" stroke="white" stroke-width="1.8" stroke-linecap="round" stroke-linejoin="round"/>
</svg>
