<svg width="15" height="15" viewBox="0 0 15 15" fill="none" xmlns="http://www.w3.org/2000/svg">
<path d="M5.625 10.625H9.375M5.625 8.75H9.375M8.12524 1.87554C8.06553 1.875 7.99836 1.875 7.9217 1.875H5.12512C4.42506 1.875 4.07476 1.875 3.80737 2.01124C3.57217 2.13108 3.38108 2.32217 3.26124 2.55737C3.125 2.82476 3.125 3.17506 3.125 3.87512V11.1251C3.125 11.8252 3.125 12.175 3.26124 12.4424C3.38108 12.6776 3.57217 12.8691 3.80737 12.9889C4.0745 13.125 4.42438 13.125 5.12309 13.125L9.87693 13.125C10.5756 13.125 10.925 13.125 11.1921 12.9889C11.4273 12.8691 11.619 12.6776 11.7389 12.4424C11.875 12.1753 11.875 11.8259 11.875 11.1272V5.82855C11.875 5.75189 11.8749 5.68471 11.8744 5.625M8.12524 1.87554C8.30365 1.87717 8.41608 1.88379 8.52386 1.90967C8.65141 1.94029 8.77366 1.99079 8.8855 2.05933C9.0116 2.1366 9.11988 2.24488 9.33594 2.46094L11.2894 4.41436C11.5056 4.63055 11.613 4.73835 11.6903 4.8645C11.7589 4.97634 11.8096 5.09829 11.8402 5.22583C11.8661 5.33362 11.8728 5.44659 11.8744 5.625M8.12524 1.87554L8.125 3.62513C8.125 4.3252 8.125 4.67509 8.26124 4.94248C8.38108 5.17769 8.57217 5.36905 8.80737 5.48889C9.0745 5.625 9.42438 5.625 10.1231 5.625H11.8744" stroke="white" stroke-width="1.5" stroke-linecap="round" stroke-linejoin="round"/>
</svg>
