<svg width="24" height="24" viewBox="0 0 24 24" fill="none" xmlns="http://www.w3.org/2000/svg">
<g clip-path="url(#clip0_1988_3280)">
<path d="M18.3007 5.70875C17.9107 5.31875 17.2807 5.31875 16.8907 5.70875L12.0007 10.5888L7.1107 5.69875C6.7207 5.30875 6.0907 5.30875 5.7007 5.69875C5.3107 6.08875 5.3107 6.71875 5.7007 7.10875L10.5907 11.9988L5.7007 16.8887C5.3107 17.2787 5.3107 17.9087 5.7007 18.2987C6.0907 18.6887 6.7207 18.6887 7.1107 18.2987L12.0007 13.4087L16.8907 18.2987C17.2807 18.6887 17.9107 18.6887 18.3007 18.2987C18.6907 17.9087 18.6907 17.2787 18.3007 16.8887L13.4107 11.9988L18.3007 7.10875C18.6807 6.72875 18.6807 6.08875 18.3007 5.70875Z" fill="white"/>
</g>
<defs>
<clipPath id="clip0_1988_3280">
<rect width="24" height="24" fill="white"/>
</clipPath>
</defs>
</svg>
