<svg width="28" height="28" viewBox="0 0 28 28" fill="none" xmlns="http://www.w3.org/2000/svg">
<rect width="28" height="28" rx="6" fill="white"/>
<g clip-path="url(#clip0_3262_4529)">
<path d="M11.0833 7H9.33333C8.71449 7 8.121 7.24583 7.68342 7.68342C7.24583 8.121 7 8.71449 7 9.33333L7 11.0833C7 11.7022 7.24583 12.2957 7.68342 12.7332C8.121 13.1708 8.71449 13.4167 9.33333 13.4167H11.0833C11.7022 13.4167 12.2957 13.1708 12.7332 12.7332C13.1708 12.2957 13.4167 11.7022 13.4167 11.0833V9.33333C13.4167 8.71449 13.1708 8.121 12.7332 7.68342C12.2957 7.24583 11.7022 7 11.0833 7V7ZM12.25 11.0833C12.25 11.3928 12.1271 11.6895 11.9083 11.9083C11.6895 12.1271 11.3928 12.25 11.0833 12.25H9.33333C9.02391 12.25 8.72717 12.1271 8.50838 11.9083C8.28958 11.6895 8.16667 11.3928 8.16667 11.0833V9.33333C8.16667 9.02391 8.28958 8.72717 8.50838 8.50838C8.72717 8.28958 9.02391 8.16667 9.33333 8.16667H11.0833C11.3928 8.16667 11.6895 8.28958 11.9083 8.50838C12.1271 8.72717 12.25 9.02391 12.25 9.33333V11.0833Z" fill="#DEDEDE"/>
<path d="M18.6673 7H16.9173C16.2985 7 15.705 7.24583 15.2674 7.68342C14.8298 8.121 14.584 8.7145 14.584 9.33333V11.0833C14.584 11.7022 14.8298 12.2957 15.2674 12.7333C15.705 13.1708 16.2985 13.4167 16.9173 13.4167H18.6673C19.2861 13.4167 19.8796 13.1708 20.3172 12.7333C20.7548 12.2957 21.0006 11.7022 21.0006 11.0833V9.33333C21.0006 8.7145 20.7548 8.121 20.3172 7.68342C19.8796 7.24583 19.2861 7 18.6673 7V7ZM19.834 11.0833C19.834 11.3928 19.7111 11.6895 19.4923 11.9083C19.2735 12.1271 18.9767 12.25 18.6673 12.25H16.9173C16.6079 12.25 16.3112 12.1271 16.0924 11.9083C15.8736 11.6895 15.7506 11.3928 15.7506 11.0833V9.33333C15.7506 9.02392 15.8736 8.72717 16.0924 8.50838C16.3112 8.28958 16.6079 8.16667 16.9173 8.16667H18.6673C18.9767 8.16667 19.2735 8.28958 19.4923 8.50838C19.7111 8.72717 19.834 9.02392 19.834 9.33333V11.0833Z" fill="#DEDEDE"/>
<path d="M11.0833 14.5835H9.33333C8.71449 14.5835 8.121 14.8293 7.68342 15.2669C7.24583 15.7045 7 16.298 7 16.9168L7 18.6668C7 19.2857 7.24583 19.8792 7.68342 20.3168C8.121 20.7543 8.71449 21.0002 9.33333 21.0002H11.0833C11.7022 21.0002 12.2957 20.7543 12.7332 20.3168C13.1708 19.8792 13.4167 19.2857 13.4167 18.6668V16.9168C13.4167 16.298 13.1708 15.7045 12.7332 15.2669C12.2957 14.8293 11.7022 14.5835 11.0833 14.5835ZM12.25 18.6668C12.25 18.9763 12.1271 19.273 11.9083 19.4918C11.6895 19.7106 11.3928 19.8335 11.0833 19.8335H9.33333C9.02391 19.8335 8.72717 19.7106 8.50838 19.4918C8.28958 19.273 8.16667 18.9763 8.16667 18.6668V16.9168C8.16667 16.6074 8.28958 16.3107 8.50838 16.0919C8.72717 15.8731 9.02391 15.7502 9.33333 15.7502H11.0833C11.3928 15.7502 11.6895 15.8731 11.9083 16.0919C12.1271 16.3107 12.25 16.6074 12.25 16.9168V18.6668Z" fill="#DEDEDE"/>
<path d="M18.6673 14.5835H16.9173C16.2985 14.5835 15.705 14.8293 15.2674 15.2669C14.8298 15.7045 14.584 16.298 14.584 16.9168V18.6668C14.584 19.2857 14.8298 19.8792 15.2674 20.3168C15.705 20.7543 16.2985 21.0002 16.9173 21.0002H18.6673C19.2861 21.0002 19.8796 20.7543 20.3172 20.3168C20.7548 19.8792 21.0006 19.2857 21.0006 18.6668V16.9168C21.0006 16.298 20.7548 15.7045 20.3172 15.2669C19.8796 14.8293 19.2861 14.5835 18.6673 14.5835ZM19.834 18.6668C19.834 18.9763 19.7111 19.273 19.4923 19.4918C19.2735 19.7106 18.9767 19.8335 18.6673 19.8335H16.9173C16.6079 19.8335 16.3112 19.7106 16.0924 19.4918C15.8736 19.273 15.7506 18.9763 15.7506 18.6668V16.9168C15.7506 16.6074 15.8736 16.3107 16.0924 16.0919C16.3112 15.8731 16.6079 15.7502 16.9173 15.7502H18.6673C18.9767 15.7502 19.2735 15.8731 19.4923 16.0919C19.7111 16.3107 19.834 16.6074 19.834 16.9168V18.6668Z" fill="#DEDEDE"/>
</g>
<defs>
<clipPath id="clip0_3262_4529">
<rect width="14" height="14" fill="white" transform="translate(7 7)"/>
</clipPath>
</defs>
</svg>
