<svg width="28" height="28" viewBox="0 0 28 28" fill="none" xmlns="http://www.w3.org/2000/svg">
<rect width="28" height="28" rx="6" fill="#F8F5FF"/>
<g clip-path="url(#clip0_3274_4164)">
<path d="M11.0833 10.5002H20.4167C20.5714 10.5002 20.7197 10.4387 20.8291 10.3293C20.9385 10.2199 21 10.0715 21 9.91683C21 9.76212 20.9385 9.61375 20.8291 9.50435C20.7197 9.39495 20.5714 9.3335 20.4167 9.3335H11.0833C10.9286 9.3335 10.7803 9.39495 10.6709 9.50435C10.5615 9.61375 10.5 9.76212 10.5 9.91683C10.5 10.0715 10.5615 10.2199 10.6709 10.3293C10.7803 10.4387 10.9286 10.5002 11.0833 10.5002Z" fill="#623AD6"/>
<path d="M20.4167 13.4165H11.0833C10.9286 13.4165 10.7803 13.478 10.6709 13.5874C10.5615 13.6968 10.5 13.8451 10.5 13.9998C10.5 14.1546 10.5615 14.3029 10.6709 14.4123C10.7803 14.5217 10.9286 14.5832 11.0833 14.5832H20.4167C20.5714 14.5832 20.7197 14.5217 20.8291 14.4123C20.9385 14.3029 21 14.1546 21 13.9998C21 13.8451 20.9385 13.6968 20.8291 13.5874C20.7197 13.478 20.5714 13.4165 20.4167 13.4165Z" fill="#623AD6"/>
<path d="M20.4167 17.5H11.0833C10.9286 17.5 10.7803 17.5615 10.6709 17.6709C10.5615 17.7803 10.5 17.9286 10.5 18.0833C10.5 18.238 10.5615 18.3864 10.6709 18.4958C10.7803 18.6052 10.9286 18.6667 11.0833 18.6667H20.4167C20.5714 18.6667 20.7197 18.6052 20.8291 18.4958C20.9385 18.3864 21 18.238 21 18.0833C21 17.9286 20.9385 17.7803 20.8291 17.6709C20.7197 17.5615 20.5714 17.5 20.4167 17.5Z" fill="#623AD6"/>
<path d="M8.16667 11.0833C8.811 11.0833 9.33333 10.561 9.33333 9.91666C9.33333 9.27233 8.811 8.75 8.16667 8.75C7.52233 8.75 7 9.27233 7 9.91666C7 10.561 7.52233 11.0833 8.16667 11.0833Z" fill="#623AD6"/>
<path d="M8.16667 15.1668C8.811 15.1668 9.33333 14.6445 9.33333 14.0002C9.33333 13.3558 8.811 12.8335 8.16667 12.8335C7.52233 12.8335 7 13.3558 7 14.0002C7 14.6445 7.52233 15.1668 8.16667 15.1668Z" fill="#623AD6"/>
<path d="M8.16667 19.2498C8.811 19.2498 9.33333 18.7275 9.33333 18.0832C9.33333 17.4388 8.811 16.9165 8.16667 16.9165C7.52233 16.9165 7 17.4388 7 18.0832C7 18.7275 7.52233 19.2498 8.16667 19.2498Z" fill="#623AD6"/>
</g>
<defs>
<clipPath id="clip0_3274_4164">
<rect width="14" height="14" fill="white" transform="translate(7 7)"/>
</clipPath>
</defs>
</svg>
