<svg width="28" height="28" viewBox="0 0 28 28" fill="none" xmlns="http://www.w3.org/2000/svg">
<rect width="28" height="28" rx="6" fill="#F8F5FF"/>
<g clip-path="url(#clip0_3274_4171)">
<rect width="14" height="14" transform="translate(7 7)" fill="#F8F5FF"/>
<path d="M14 7C12.6155 7 11.2622 7.41054 10.111 8.17971C8.95987 8.94888 8.06266 10.0421 7.53285 11.3212C7.00303 12.6003 6.86441 14.0078 7.13451 15.3656C7.4046 16.7235 8.07129 17.9708 9.05026 18.9497C10.0292 19.9287 11.2765 20.5954 12.6344 20.8655C13.9922 21.1356 15.3997 20.997 16.6788 20.4672C17.9579 19.9373 19.0511 19.0401 19.8203 17.889C20.5895 16.7378 21 15.3845 21 14C20.998 12.1441 20.2599 10.3648 18.9475 9.05247C17.6352 7.74015 15.8559 7.00201 14 7V7ZM14 19.8333C12.8463 19.8333 11.7185 19.4912 10.7592 18.8502C9.79989 18.2093 9.05222 17.2982 8.61071 16.2323C8.16919 15.1664 8.05368 13.9935 8.27876 12.862C8.50384 11.7304 9.05941 10.691 9.87521 9.87521C10.691 9.0594 11.7304 8.50383 12.862 8.27875C13.9935 8.05367 15.1664 8.16919 16.2323 8.6107C17.2982 9.05221 18.2093 9.79989 18.8502 10.7592C19.4912 11.7185 19.8333 12.8463 19.8333 14C19.8316 15.5466 19.2165 17.0293 18.1229 18.1229C17.0293 19.2165 15.5466 19.8316 14 19.8333V19.8333Z" fill="#623AD6"/>
<path d="M13.9994 9.91699C13.8446 9.91699 13.6963 9.97845 13.5869 10.0878C13.4775 10.1972 13.416 10.3456 13.416 10.5003V15.167C13.416 15.3217 13.4775 15.4701 13.5869 15.5795C13.6963 15.6889 13.8446 15.7503 13.9994 15.7503C14.1541 15.7503 14.3024 15.6889 14.4118 15.5795C14.5212 15.4701 14.5827 15.3217 14.5827 15.167V10.5003C14.5827 10.3456 14.5212 10.1972 14.4118 10.0878C14.3024 9.97845 14.1541 9.91699 13.9994 9.91699Z" fill="#623AD6"/>
<path d="M14.5827 17.5003C14.5827 17.1782 14.3215 16.917 13.9994 16.917C13.6772 16.917 13.416 17.1782 13.416 17.5003C13.416 17.8225 13.6772 18.0837 13.9994 18.0837C14.3215 18.0837 14.5827 17.8225 14.5827 17.5003Z" fill="#623AD6"/>
</g>
<defs>
<clipPath id="clip0_3274_4171">
<rect width="14" height="14" fill="white" transform="translate(7 7)"/>
</clipPath>
</defs>
</svg>
