<svg width="28" height="28" viewBox="0 0 28 28" fill="none" xmlns="http://www.w3.org/2000/svg">
<rect width="28" height="28" rx="6" fill="white"/>
<g clip-path="url(#clip0_3274_4104)">
<path d="M18.8718 12.205L18.6581 12.0862C18.625 12.0677 18.6087 12.0585 18.5926 12.0489C18.4333 11.9535 18.2991 11.8216 18.2011 11.6639C18.1912 11.648 18.182 11.6314 18.1629 11.5985C18.144 11.5656 18.1344 11.549 18.1255 11.5325C18.0376 11.3684 17.9901 11.1855 17.9872 10.9994C17.987 10.9807 17.987 10.9615 17.9877 10.9235L17.9919 10.6755C17.9985 10.2785 18.0019 10.0794 17.9461 9.90069C17.8965 9.74197 17.8136 9.59579 17.7029 9.47173C17.5778 9.33149 17.4046 9.23145 17.0578 9.03161L16.7697 8.86561C16.4239 8.66634 16.251 8.56666 16.0673 8.52866C15.9049 8.49505 15.7373 8.4966 15.5755 8.53293C15.3928 8.57394 15.222 8.67621 14.8806 8.88064L14.8786 8.88157L14.6722 9.00515C14.6396 9.0247 14.6231 9.03454 14.6067 9.04364C14.4444 9.13389 14.2632 9.18379 14.0775 9.18976C14.0588 9.19036 14.0398 9.19036 14.0017 9.19036C13.9639 9.19036 13.944 9.19036 13.9254 9.18976C13.7394 9.18377 13.5578 9.13359 13.3952 9.04297C13.3788 9.03384 13.3626 9.02391 13.3299 9.00427L13.1222 8.87957C12.7784 8.67321 12.6063 8.56987 12.4226 8.52866C12.2601 8.49221 12.0919 8.4912 11.9289 8.52525C11.7449 8.56369 11.5718 8.66411 11.2258 8.86493L11.2243 8.86561L10.9398 9.03072L10.9367 9.03265C10.5937 9.23167 10.4219 9.33142 10.2978 9.47108C10.1877 9.59501 10.1054 9.74097 10.0561 9.89927C10.0004 10.0782 10.0034 10.2777 10.0101 10.6766L10.0143 10.9243C10.0149 10.9618 10.016 10.9804 10.0157 10.9989C10.013 11.1854 9.96481 11.3687 9.87666 11.5331C9.86794 11.5493 9.85855 11.5656 9.83979 11.598C9.82102 11.6306 9.81192 11.6467 9.80219 11.6624C9.70377 11.821 9.56889 11.9536 9.40858 12.0492C9.39273 12.0586 9.37602 12.0677 9.34318 12.0859L9.13227 12.2028C8.78136 12.3973 8.60594 12.4946 8.4783 12.6331C8.36538 12.7556 8.28008 12.9009 8.22801 13.0592C8.16915 13.2381 8.1692 13.4387 8.17012 13.8399L8.17086 14.1678C8.17176 14.5663 8.173 14.7654 8.232 14.9431C8.28419 15.1003 8.36886 15.2448 8.48115 15.3666C8.60807 15.5042 8.78174 15.601 9.12999 15.7947L9.33902 15.911C9.3746 15.9308 9.3925 15.9405 9.40966 15.9509C9.56851 16.0465 9.70233 16.1787 9.79991 16.3364C9.81045 16.3535 9.82058 16.3711 9.84082 16.4065C9.8608 16.4414 9.87103 16.4589 9.88027 16.4764C9.96583 16.6384 10.0116 16.8184 10.0148 17.0015C10.0151 17.0213 10.0148 17.0413 10.0141 17.0816L10.0101 17.3193C10.0034 17.7195 10.0004 17.9198 10.0564 18.0993C10.106 18.258 10.1888 18.4042 10.2995 18.5282C10.4246 18.6685 10.5981 18.7685 10.9449 18.9683L11.2329 19.1342C11.5788 19.3335 11.7516 19.433 11.9352 19.4711C12.0976 19.5047 12.2653 19.5034 12.4272 19.4671C12.6101 19.426 12.7815 19.3234 13.1239 19.1183L13.3303 18.9948C13.3629 18.9752 13.3795 18.9654 13.3958 18.9563C13.5582 18.866 13.7392 18.8159 13.9249 18.8099C13.9435 18.8093 13.9626 18.8093 14.0006 18.8093C14.0388 18.8093 14.0578 18.8093 14.0765 18.8099C14.2625 18.8159 14.4447 18.8663 14.6073 18.9569C14.6216 18.9649 14.6359 18.9735 14.6611 18.9886L14.8805 19.1203C15.2243 19.3267 15.3961 19.4297 15.5798 19.471C15.7422 19.5074 15.9106 19.5089 16.0736 19.4749C16.2576 19.4364 16.431 19.3358 16.7768 19.1351L17.0656 18.9675C17.4087 18.7683 17.5807 18.6685 17.7049 18.5288C17.815 18.4049 17.8974 18.259 17.9466 18.1007C18.0019 17.923 17.9986 17.725 17.992 17.3319L17.9877 17.0756C17.987 17.0381 17.987 17.0194 17.9872 17.001C17.99 16.8144 18.0374 16.6311 18.1255 16.4667C18.1342 16.4504 18.1437 16.434 18.1624 16.4016C18.1811 16.3692 18.1909 16.353 18.2006 16.3373C18.299 16.1787 18.434 16.046 18.5944 15.9504C18.61 15.941 18.6262 15.9321 18.6582 15.9144L18.6593 15.9139L18.8702 15.797C19.2211 15.6025 19.3969 15.5051 19.5245 15.3666C19.6374 15.2441 19.7226 15.0989 19.7747 14.9407C19.8332 14.7628 19.8327 14.5634 19.8319 14.1669L19.8311 13.8319C19.8302 13.4334 19.8297 13.2343 19.7707 13.0566C19.7185 12.8994 19.6334 12.7549 19.5211 12.6332C19.3943 12.4956 19.2204 12.3989 18.8728 12.2055L18.8718 12.205Z" stroke="#DDDDDD" stroke-width="1.5" stroke-linecap="round" stroke-linejoin="round"/>
<path d="M11.666 13.9999C11.666 15.2885 12.7107 16.3332 13.9993 16.3332C15.288 16.3332 16.3327 15.2885 16.3327 13.9999C16.3327 12.7112 15.288 11.6665 13.9993 11.6665C12.7107 11.6665 11.666 12.7112 11.666 13.9999Z" stroke="#DDDDDD" stroke-width="1.5" stroke-linecap="round" stroke-linejoin="round"/>
</g>
<defs>
<clipPath id="clip0_3274_4104">
<rect width="14" height="14" fill="white" transform="translate(7 7)"/>
</clipPath>
</defs>
</svg>
